<?xml version="1.0" encoding="utf-8" standalone="no"?>
<!DOCTYPE svg PUBLIC "-//W3C//DTD SVG 1.1//EN"
  "http://www.w3.org/Graphics/SVG/1.1/DTD/svg11.dtd">
<svg xmlns:xlink="http://www.w3.org/1999/xlink" width="361.442511pt" height="131.876875pt" viewBox="0 0 361.442511 131.876875" xmlns="http://www.w3.org/2000/svg" version="1.1">
 <metadata>
  <rdf:RDF xmlns:dc="http://purl.org/dc/elements/1.1/" xmlns:cc="http://creativecommons.org/ns#" xmlns:rdf="http://www.w3.org/1999/02/22-rdf-syntax-ns#">
   <cc:Work>
    <dc:type rdf:resource="http://purl.org/dc/dcmitype/StillImage"/>
    <dc:date>2026-10-03T14:12:37.379951</dc:date>
    <dc:format>image/svg+xml</dc:format>
    <dc:creator>
     <cc:Agent>
      <dc:title>Matplotlib v3.11.2, https://matplotlib.org/</dc:title>
     </cc:Agent>
    </dc:creator>
   </cc:Work>
  </rdf:RDF>
 </metadata>
 <defs>
  <style type="text/css">*{stroke-linejoin: round; stroke-linecap: butt}</style>
 </defs>
 <g id="figure_1">
  <g id="patch_1">
   <path d="M 0 131.876875 
L 361.442511 131.876875 
L 361.442511 0 
L 0 0 
z
" style="fill: #ffffff"/>
  </g>
  <g id="axes_1">
   <g id="patch_2">
    <path d="M 38.343906 97.63375 
L 204.411889 97.63375 
L 204.411889 15.038437 
L 38.343906 15.038437 
z
" style="fill: #ffffff"/>
   </g>
   <g id="matplotlib.axis_1">
    <g id="xtick_1">
     <g id="line2d_1">
      <path d="M 96.446689 97.63375 
L 96.446689 15.038437 
" clip-path="url(#p34aa2f7600)" style="fill: none; stroke: #b0b0b0; stroke-opacity: 0.25; stroke-width: 0.5; stroke-linecap: square"/>
     </g>
     <g id="line2d_2">
      <defs>
       <path id="mad43bab2ea" d="M 0 0 
L 0 3.5 
" style="stroke: #000000; stroke-width: 0.8"/>
      </defs>
      <g>
       <use xlink:href="#mad43bab2ea" x="96.446689" y="97.63375" style="stroke: #000000; stroke-width: 0.8"/>
      </g>
     </g>
     <g id="text_1">
      <!-- $\mathdefault{10^{1}}$ -->
      <g transform="translate(87.646689 113.93375)">
       <text>
        <tspan x="0" y="-0.762187" style="font-size: 10px; font-family: 'DejaVu Sans'">1</tspan>
        <tspan x="6.362305" y="-0.762187" style="font-size: 10px; font-family: 'DejaVu Sans'">0</tspan>
        <tspan x="12.820312" y="-4.892187" style="font-size: 7px; font-family: 'DejaVu Sans'">1</tspan>
       </text>
      </g>
     </g>
    </g>
    <g id="xtick_2">
     <g id="line2d_3">
      <path d="M 194.949048 97.63375 
L 194.949048 15.038437 
" clip-path="url(#p34aa2f7600)" style="fill: none; stroke: #b0b0b0; stroke-opacity: 0.25; stroke-width: 0.5; stroke-linecap: square"/>
     </g>
     <g id="line2d_4">
      <g>
       <use xlink:href="#mad43bab2ea" x="194.949048" y="97.63375" style="stroke: #000000; stroke-width: 0.8"/>
      </g>
     </g>
     <g id="text_2">
      <!-- $\mathdefault{10^{2}}$ -->
      <g transform="translate(186.149048 114.03375)">
       <text>
        <tspan x="0" y="-0.674688" style="font-size: 10px; font-family: 'DejaVu Sans'">1</tspan>
        <tspan x="6.362305" y="-0.674688" style="font-size: 10px; font-family: 'DejaVu Sans'">0</tspan>
        <tspan x="12.820312" y="-4.804688" style="font-size: 7px; font-family: 'DejaVu Sans'">2</tspan>
       </text>
      </g>
     </g>
    </g>
    <g id="xtick_3">
     <g id="line2d_5">
      <defs>
       <path id="m70a3b49b62" d="M 0 0 
L 0 2 
" style="stroke: #000000; stroke-width: 0.6"/>
      </defs>
      <g>
       <use xlink:href="#m70a3b49b62" x="44.941899" y="97.63375" style="stroke: #000000; stroke-width: 0.6"/>
      </g>
     </g>
    </g>
    <g id="xtick_4">
     <g id="line2d_6">
      <g>
       <use xlink:href="#m70a3b49b62" x="57.248659" y="97.63375" style="stroke: #000000; stroke-width: 0.6"/>
      </g>
     </g>
    </g>
    <g id="xtick_5">
     <g id="line2d_7">
      <g>
       <use xlink:href="#m70a3b49b62" x="66.794524" y="97.63375" style="stroke: #000000; stroke-width: 0.6"/>
      </g>
     </g>
    </g>
    <g id="xtick_6">
     <g id="line2d_8">
      <g>
       <use xlink:href="#m70a3b49b62" x="74.594064" y="97.63375" style="stroke: #000000; stroke-width: 0.6"/>
      </g>
     </g>
    </g>
    <g id="xtick_7">
     <g id="line2d_9">
      <g>
       <use xlink:href="#m70a3b49b62" x="81.18848" y="97.63375" style="stroke: #000000; stroke-width: 0.6"/>
      </g>
     </g>
    </g>
    <g id="xtick_8">
     <g id="line2d_10">
      <g>
       <use xlink:href="#m70a3b49b62" x="86.900824" y="97.63375" style="stroke: #000000; stroke-width: 0.6"/>
      </g>
     </g>
    </g>
    <g id="xtick_9">
     <g id="line2d_11">
      <g>
       <use xlink:href="#m70a3b49b62" x="91.939468" y="97.63375" style="stroke: #000000; stroke-width: 0.6"/>
      </g>
     </g>
    </g>
    <g id="xtick_10">
     <g id="line2d_12">
      <g>
       <use xlink:href="#m70a3b49b62" x="126.098854" y="97.63375" style="stroke: #000000; stroke-width: 0.6"/>
      </g>
     </g>
    </g>
    <g id="xtick_11">
     <g id="line2d_13">
      <g>
       <use xlink:href="#m70a3b49b62" x="143.444258" y="97.63375" style="stroke: #000000; stroke-width: 0.6"/>
      </g>
     </g>
    </g>
    <g id="xtick_12">
     <g id="line2d_14">
      <g>
       <use xlink:href="#m70a3b49b62" x="155.751019" y="97.63375" style="stroke: #000000; stroke-width: 0.6"/>
      </g>
     </g>
    </g>
    <g id="xtick_13">
     <g id="line2d_15">
      <g>
       <use xlink:href="#m70a3b49b62" x="165.296884" y="97.63375" style="stroke: #000000; stroke-width: 0.6"/>
      </g>
     </g>
    </g>
    <g id="xtick_14">
     <g id="line2d_16">
      <g>
       <use xlink:href="#m70a3b49b62" x="173.096423" y="97.63375" style="stroke: #000000; stroke-width: 0.6"/>
      </g>
     </g>
    </g>
    <g id="xtick_15">
     <g id="line2d_17">
      <g>
       <use xlink:href="#m70a3b49b62" x="179.69084" y="97.63375" style="stroke: #000000; stroke-width: 0.6"/>
      </g>
     </g>
    </g>
    <g id="xtick_16">
     <g id="line2d_18">
      <g>
       <use xlink:href="#m70a3b49b62" x="185.403184" y="97.63375" style="stroke: #000000; stroke-width: 0.6"/>
      </g>
     </g>
    </g>
    <g id="xtick_17">
     <g id="line2d_19">
      <g>
       <use xlink:href="#m70a3b49b62" x="190.441828" y="97.63375" style="stroke: #000000; stroke-width: 0.6"/>
      </g>
     </g>
    </g>
    <g id="text_3">
     <text style="font-size: 10px; font-family: 'DejaVu Sans'; text-anchor: middle" x="121.377898" y="128.034531" transform="rotate(-0 121.377898 128.034531)">hours to completion (log)</text>
    </g>
   </g>
   <g id="matplotlib.axis_2">
    <g id="ytick_1">
     <g id="line2d_20">
      <path d="M 38.343906 97.63375 
L 204.411889 97.63375 
" clip-path="url(#p34aa2f7600)" style="fill: none; stroke: #b0b0b0; stroke-opacity: 0.25; stroke-width: 0.5; stroke-linecap: square"/>
     </g>
     <g id="line2d_21">
      <defs>
       <path id="m81d0d28576" d="M 0 0 
L -3.5 0 
" style="stroke: #000000; stroke-width: 0.8"/>
      </defs>
      <g>
       <use xlink:href="#m81d0d28576" x="38.343906" y="97.63375" style="stroke: #000000; stroke-width: 0.8"/>
      </g>
     </g>
     <g id="text_4">
      <text style="font-size: 10px; font-family: 'DejaVu Sans'; text-anchor: end" x="31.343906" y="101.432578" transform="rotate(-0 31.343906 101.432578)">0.0</text>
     </g>
    </g>
    <g id="ytick_2">
     <g id="line2d_22">
      <path d="M 38.343906 57.145852 
L 204.411889 57.145852 
" clip-path="url(#p34aa2f7600)" style="fill: none; stroke: #b0b0b0; stroke-opacity: 0.25; stroke-width: 0.5; stroke-linecap: square"/>
     </g>
     <g id="line2d_23">
      <g>
       <use xlink:href="#m81d0d28576" x="38.343906" y="57.145852" style="stroke: #000000; stroke-width: 0.8"/>
      </g>
     </g>
     <g id="text_5">
      <text style="font-size: 10px; font-family: 'DejaVu Sans'; text-anchor: end" x="31.343906" y="60.94468" transform="rotate(-0 31.343906 60.94468)">0.5</text>
     </g>
    </g>
    <g id="ytick_3">
     <g id="line2d_24">
      <path d="M 38.343906 16.657953 
L 204.411889 16.657953 
" clip-path="url(#p34aa2f7600)" style="fill: none; stroke: #b0b0b0; stroke-opacity: 0.25; stroke-width: 0.5; stroke-linecap: square"/>
     </g>
     <g id="line2d_25">
      <g>
       <use xlink:href="#m81d0d28576" x="38.343906" y="16.657953" style="stroke: #000000; stroke-width: 0.8"/>
      </g>
     </g>
     <g id="text_6">
      <text style="font-size: 10px; font-family: 'DejaVu Sans'; text-anchor: end" x="31.343906" y="20.456782" transform="rotate(-0 31.343906 20.456782)">1.0</text>
     </g>
    </g>
    <g id="text_7">
     <text style="font-size: 10px; font-family: 'DejaVu Sans'; text-anchor: middle" x="9.038438" y="56.336094" transform="rotate(-90 9.038438 56.336094)">P(done by t)</text>
    </g>
   </g>
   <g id="line2d_26">
    <path d="M 45.892451 97.63375 
L 45.892451 54.757066 
L 46.124245 54.757066 
L 46.124245 54.67609 
L 46.124245 49.736566 
L 46.354789 49.736566 
L 46.354789 49.655591 
L 46.354789 48.764857 
L 62.954847 48.764857 
L 62.954847 48.683881 
L 62.958162 38.845322 
L 63.110541 38.845322 
L 63.110541 38.764346 
L 63.113856 37.549709 
L 63.265741 37.509221 
L 63.265741 37.468733 
L 63.266568 37.387757 
L 64.078377 37.387757 
L 64.078377 37.306782 
L 64.081448 25.119924 
L 64.230041 25.119924 
L 64.230041 25.038948 
L 64.233102 23.66236 
L 64.381904 23.581384 
L 64.38422 23.419432 
L 75.120972 23.338457 
L 75.125224 22.326259 
L 75.966188 22.245283 
L 75.973246 19.573082 
L 76.798276 19.492106 
L 76.802308 17.87259 
L 76.912329 17.791615 
L 76.914604 17.629663 
L 84.585837 17.548687 
L 84.585837 17.508199 
L 85.264442 17.427223 
L 85.265787 17.265272 
L 85.930299 17.184296 
L 86.024286 16.941369 
L 93.5315 16.860393 
L 93.5315 16.819905 
L 99.248218 16.738929 
L 99.248218 16.698441 
L 140.814244 16.698441 
L 140.814244 16.657953 
" clip-path="url(#p34aa2f7600)" style="fill: none; stroke: #c4472d; stroke-width: 1.5; stroke-linecap: square"/>
   </g>
   <g id="line2d_27">
    <path d="M 47.224819 97.63375 
L 47.224819 56.902924 
L 47.449506 56.902924 
L 47.449506 56.821949 
L 47.449506 49.534127 
L 47.673019 49.534127 
L 47.673019 49.453151 
L 47.673019 47.793147 
L 63.686362 47.793147 
L 63.686362 47.712171 
L 63.690428 38.845322 
L 63.839408 38.845322 
L 63.839408 38.764346 
L 63.843461 37.428245 
L 63.992569 37.347269 
L 63.995949 37.104342 
L 64.951868 37.104342 
L 64.951868 37.023366 
L 64.9546 25.97017 
L 65.100461 25.97017 
L 65.100461 25.889194 
L 65.103163 24.310166 
L 65.24854 24.310166 
L 65.24854 24.22919 
L 65.251003 23.824311 
L 75.544922 23.743336 
L 75.548933 22.933578 
L 75.778121 22.852602 
L 75.779261 22.771626 
L 76.505488 22.771626 
L 76.505488 22.69065 
L 76.511785 19.977961 
L 76.622796 19.896985 
L 76.732129 19.775522 
L 77.448007 19.694546 
L 77.558602 17.953566 
L 77.56045 17.87259 
L 77.561131 17.670151 
L 85.594186 17.589175 
L 85.600971 17.427223 
L 86.359256 17.346248 
L 86.359256 17.30576 
L 87.195226 17.224784 
L 87.195226 17.184296 
L 94.356897 17.10332 
L 94.356897 17.062832 
L 100.675917 17.062832 
L 100.675917 16.981857 
L 100.675917 16.779417 
L 110.969925 16.698441 
L 110.969925 16.657953 
L 110.969925 16.657953 
" clip-path="url(#p34aa2f7600)" style="fill: none; stroke: #6a8f3a; stroke-width: 1.5; stroke-linecap: square"/>
   </g>
   <g id="line2d_28">
    <path d="M 116.080954 97.63375 
L 116.170955 93.463496 
L 116.215884 93.463496 
L 116.215884 93.382521 
L 116.305602 91.358126 
L 116.35039 91.27715 
L 116.395132 90.386416 
L 120.260147 90.30544 
L 120.343201 89.252755 
L 120.382872 89.171779 
L 120.465018 88.604949 
L 124.065269 88.523973 
L 124.14332 88.119094 
L 129.133236 88.038118 
L 129.237661 78.321023 
L 129.265839 78.280535 
L 129.265839 78.240047 
L 129.369935 74.839063 
L 132.251223 74.798575 
L 132.251223 74.758087 
L 132.349649 72.490765 
L 132.375084 72.409789 
L 132.471808 71.721495 
L 135.162094 71.640519 
L 135.271112 71.23564 
L 137.984785 71.154665 
L 137.984785 71.114177 
L 139.1199 71.114177 
L 139.1199 71.033201 
L 139.230225 61.03269 
L 139.232731 60.951714 
L 139.311313 58.441464 
L 141.606675 58.360489 
L 141.711177 55.688287 
L 141.734638 55.607312 
L 141.788781 55.040481 
L 143.983845 54.959505 
L 144.082174 54.554626 
L 146.694555 54.47365 
L 146.738579 53.947308 
L 147.212341 53.866332 
L 147.323432 46.052168 
L 147.324228 45.971192 
L 147.36864 44.47314 
L 148.809529 44.432652 
L 148.809529 44.392164 
L 148.829927 44.311188 
L 149.282233 44.230212 
L 149.388886 42.246305 
L 149.408573 42.165329 
L 149.41108 42.043866 
L 151.369492 41.96289 
L 151.369492 41.922402 
L 153.571036 41.841426 
L 153.627343 40.42435 
L 154.013244 40.343374 
L 154.111524 35.727754 
L 154.128099 35.646778 
L 154.14992 35.444338 
L 155.378652 35.363362 
L 155.41451 35.241899 
L 155.593997 35.160923 
L 155.593997 35.079947 
L 155.78496 34.998971 
L 155.893221 33.824822 
L 157.281642 33.743847 
L 157.302594 33.581895 
L 157.51594 33.500919 
L 157.569766 33.29848 
L 159.492707 33.217504 
L 159.544626 31.962379 
L 159.881451 31.881403 
L 159.98083 29.290178 
L 160.869249 29.209202 
L 160.974641 28.844811 
L 161.072098 28.763835 
L 161.099246 28.561396 
L 161.231012 28.48042 
L 161.278849 28.116029 
L 161.429226 28.035053 
L 161.539626 27.549198 
L 162.415447 27.468222 
L 162.489219 27.387246 
L 162.728375 27.346759 
L 162.728375 27.306271 
L 162.776817 26.982367 
L 162.97714 26.901392 
L 162.97714 26.860904 
L 164.693329 26.779928 
L 164.728809 26.091634 
L 165.039697 26.010658 
L 165.143372 25.038948 
L 165.916298 24.957973 
L 166.019329 24.269678 
L 166.108667 24.188703 
L 166.120326 24.067239 
L 166.2391 23.986263 
L 166.281241 23.66236 
L 166.445886 23.581384 
L 166.510785 23.45992 
L 167.314431 23.378945 
L 167.314431 23.338457 
L 167.585788 23.257481 
L 167.586013 23.176505 
L 168.580705 23.095529 
L 168.580705 23.055041 
L 169.060803 22.974066 
L 169.060803 22.933578 
L 169.33196 22.852602 
L 169.373892 22.204795 
L 169.643849 22.12382 
L 169.707736 21.840404 
L 170.422072 21.759429 
L 170.52121 21.111622 
L 170.587276 21.030646 
L 170.61258 20.868695 
L 170.73535 20.787719 
L 170.759129 20.544792 
L 171.644422 20.463816 
L 171.687217 20.261376 
L 171.939387 20.180401 
L 171.964828 20.018449 
L 173.244091 19.937473 
L 173.268441 19.816009 
L 173.529157 19.735034 
L 173.556261 19.411131 
L 174.236742 19.330155 
L 174.271433 19.249179 
L 174.512998 19.168203 
L 174.568188 18.803812 
L 175.633063 18.722836 
L 175.633063 18.682348 
L 177.065621 18.601373 
L 177.097232 18.479909 
L 177.865882 18.398933 
L 177.865882 18.358445 
L 178.23213 18.277469 
L 178.295469 17.87259 
L 178.504504 17.791615 
L 178.504504 17.751127 
L 179.271568 17.670151 
L 179.28629 17.548687 
L 180.594258 17.467711 
L 180.594258 17.427223 
L 181.69512 17.346248 
L 181.69512 17.30576 
L 182.836111 17.224784 
L 182.836111 17.184296 
L 184.059905 17.10332 
L 184.059905 17.062832 
L 185.529844 16.981857 
L 185.601076 16.900881 
L 190.558459 16.819905 
L 190.558459 16.779417 
L 196.863345 16.698441 
L 196.863345 16.657953 
L 196.863345 16.657953 
" clip-path="url(#p34aa2f7600)" style="fill: none; stroke: #2f6db5; stroke-width: 1.5; stroke-linecap: square"/>
   </g>
   <g id="patch_3">
    <path d="M 38.343906 97.63375 
L 38.343906 15.038437 
" style="fill: none; stroke: #000000; stroke-width: 0.8; stroke-linejoin: miter; stroke-linecap: square"/>
   </g>
   <g id="patch_4">
    <path d="M 38.343906 97.63375 
L 204.411889 97.63375 
" style="fill: none; stroke: #000000; stroke-width: 0.8; stroke-linejoin: miter; stroke-linecap: square"/>
   </g>
   <g id="text_8">
    <text style="font-size: 10px; font-family: 'DejaVu Sans'; text-anchor: start" x="38.343906" y="9.038437" transform="rotate(-0 38.343906 9.038437)">Equity trades</text>
   </g>
   <g id="legend_1">
    <g id="line2d_29">
     <path d="M 148.352514 52.729844 
L 158.352514 52.729844 
L 158.352514 52.729844 
L 168.352514 52.729844 
L 168.352514 52.729844 
" style="fill: none; stroke: #c4472d; stroke-width: 1.5; stroke-linecap: square"/>
    </g>
    <g id="text_9">
     <text style="font-size: 10px; font-family: 'DejaVu Sans'; text-anchor: start" x="176.352514" y="56.229844" transform="rotate(-0 176.352514 56.229844)">S1a</text>
    </g>
    <g id="line2d_30">
     <path d="M 148.352514 67.730625 
L 158.352514 67.730625 
L 158.352514 67.730625 
L 168.352514 67.730625 
L 168.352514 67.730625 
" style="fill: none; stroke: #6a8f3a; stroke-width: 1.5; stroke-linecap: square"/>
    </g>
    <g id="text_10">
     <text style="font-size: 10px; font-family: 'DejaVu Sans'; text-anchor: start" x="176.352514" y="71.230625" transform="rotate(-0 176.352514 71.230625)">S1b</text>
    </g>
    <g id="line2d_31">
     <path d="M 148.352514 82.731406 
L 158.352514 82.731406 
L 158.352514 82.731406 
L 168.352514 82.731406 
L 168.352514 82.731406 
" style="fill: none; stroke: #2f6db5; stroke-width: 1.5; stroke-linecap: square"/>
    </g>
    <g id="text_11">
     <text style="font-size: 10px; font-family: 'DejaVu Sans'; text-anchor: start" x="176.352514" y="86.231406" transform="rotate(-0 176.352514 86.231406)">S1c</text>
    </g>
   </g>
  </g>
  <g id="axes_2">
   <g id="patch_5">
    <path d="M 214.555636 97.63375 
L 352.945622 97.63375 
L 352.945622 15.038437 
L 214.555636 15.038437 
z
" style="fill: #ffffff"/>
   </g>
   <g id="matplotlib.axis_3">
    <g id="xtick_18">
     <g id="line2d_32">
      <path d="M 239.854328 97.63375 
L 239.854328 15.038437 
" clip-path="url(#p6badd50842)" style="fill: none; stroke: #b0b0b0; stroke-opacity: 0.25; stroke-width: 0.5; stroke-linecap: square"/>
     </g>
     <g id="line2d_33">
      <g>
       <use xlink:href="#mad43bab2ea" x="239.854328" y="97.63375" style="stroke: #000000; stroke-width: 0.8"/>
      </g>
     </g>
     <g id="text_12">
      <text style="font-size: 10px; font-family: 'DejaVu Sans'; text-anchor: middle" x="239.854328" y="112.231406" transform="rotate(-0 239.854328 112.231406)">330</text>
     </g>
    </g>
    <g id="xtick_19">
     <g id="line2d_34">
      <path d="M 291.89062 97.63375 
L 291.89062 15.038437 
" clip-path="url(#p6badd50842)" style="fill: none; stroke: #b0b0b0; stroke-opacity: 0.25; stroke-width: 0.5; stroke-linecap: square"/>
     </g>
     <g id="line2d_35">
      <g>
       <use xlink:href="#mad43bab2ea" x="291.89062" y="97.63375" style="stroke: #000000; stroke-width: 0.8"/>
      </g>
     </g>
     <g id="text_13">
      <text style="font-size: 10px; font-family: 'DejaVu Sans'; text-anchor: middle" x="291.89062" y="112.231406" transform="rotate(-0 291.89062 112.231406)">335</text>
     </g>
    </g>
    <g id="xtick_20">
     <g id="line2d_36">
      <path d="M 343.926911 97.63375 
L 343.926911 15.038437 
" clip-path="url(#p6badd50842)" style="fill: none; stroke: #b0b0b0; stroke-opacity: 0.25; stroke-width: 0.5; stroke-linecap: square"/>
     </g>
     <g id="line2d_37">
      <g>
       <use xlink:href="#mad43bab2ea" x="343.926911" y="97.63375" style="stroke: #000000; stroke-width: 0.8"/>
      </g>
     </g>
     <g id="text_14">
      <text style="font-size: 10px; font-family: 'DejaVu Sans'; text-anchor: middle" x="343.926911" y="112.231406" transform="rotate(-0 343.926911 112.231406)">340</text>
     </g>
    </g>
    <g id="text_15">
     <text style="font-size: 10px; font-family: 'DejaVu Sans'; text-anchor: middle" x="283.750629" y="126.232187" transform="rotate(-0 283.750629 126.232187)">hours to completion</text>
    </g>
   </g>
   <g id="matplotlib.axis_4">
    <g id="ytick_4">
     <g id="line2d_38">
      <path d="M 214.555636 97.63375 
L 352.945622 97.63375 
" clip-path="url(#p6badd50842)" style="fill: none; stroke: #b0b0b0; stroke-opacity: 0.25; stroke-width: 0.5; stroke-linecap: square"/>
     </g>
     <g id="line2d_39">
      <g>
       <use xlink:href="#m81d0d28576" x="214.555636" y="97.63375" style="stroke: #000000; stroke-width: 0.8"/>
      </g>
     </g>
    </g>
    <g id="ytick_5">
     <g id="line2d_40">
      <path d="M 214.555636 57.145852 
L 352.945622 57.145852 
" clip-path="url(#p6badd50842)" style="fill: none; stroke: #b0b0b0; stroke-opacity: 0.25; stroke-width: 0.5; stroke-linecap: square"/>
     </g>
     <g id="line2d_41">
      <g>
       <use xlink:href="#m81d0d28576" x="214.555636" y="57.145852" style="stroke: #000000; stroke-width: 0.8"/>
      </g>
     </g>
    </g>
    <g id="ytick_6">
     <g id="line2d_42">
      <path d="M 214.555636 16.657953 
L 352.945622 16.657953 
" clip-path="url(#p6badd50842)" style="fill: none; stroke: #b0b0b0; stroke-opacity: 0.25; stroke-width: 0.5; stroke-linecap: square"/>
     </g>
     <g id="line2d_43">
      <g>
       <use xlink:href="#m81d0d28576" x="214.555636" y="16.657953" style="stroke: #000000; stroke-width: 0.8"/>
      </g>
     </g>
    </g>
   </g>
   <g id="line2d_44">
    <path d="M 220.84609 97.63375 
L 220.84609 80.507369 
L 221.019528 80.507369 
L 221.019528 80.426393 
L 221.019528 78.118583 
L 221.192965 78.118583 
L 221.192965 78.037607 
L 221.192965 77.835168 
L 232.544299 77.835168 
L 232.544299 77.754192 
L 232.548446 74.7176 
L 232.719976 74.677112 
L 232.719976 74.636624 
L 232.735269 71.154665 
L 232.90871 71.073689 
L 232.90871 70.911737 
L 234.858064 70.911737 
L 234.858064 70.830761 
L 234.862258 68.522951 
L 235.034428 68.441975 
L 235.03573 68.118072 
L 235.293814 68.118072 
L 235.293814 68.037096 
L 235.297696 65.931726 
L 235.467299 65.931726 
L 235.467299 65.85075 
L 235.471181 65.486359 
L 236.491537 65.486359 
L 236.491537 65.405383 
L 236.494428 60.789763 
L 236.665055 60.708787 
L 236.768973 56.619509 
L 236.938543 56.579021 
L 236.938543 56.538533 
L 236.942424 56.012191 
L 237.311343 55.931215 
L 237.316185 51.882425 
L 237.48476 51.882425 
L 237.48476 51.801449 
L 237.489602 51.234619 
L 237.757387 51.234619 
L 237.757387 51.153643 
L 237.760893 45.647289 
L 237.931668 45.606801 
L 237.931668 45.566313 
L 237.934331 45.24241 
L 238.107152 45.161434 
L 238.107152 45.120946 
L 246.562781 45.03997 
L 246.566975 44.554115 
L 246.751082 44.47314 
L 246.753311 44.027773 
L 246.999394 43.946797 
L 247.002621 43.582406 
L 247.176766 43.50143 
L 247.189719 43.015575 
L 248.007125 42.934599 
L 248.011928 42.610696 
L 248.1952 42.52972 
L 248.199871 42.165329 
L 248.382367 42.124841 
L 248.382367 42.084354 
L 248.472284 41.072156 
L 248.651825 40.99118 
L 248.658598 40.262398 
L 249.008134 40.22191 
L 249.008134 40.181422 
L 249.016466 39.493128 
L 249.19763 39.412152 
L 249.203921 38.440443 
L 250.345968 38.359467 
L 250.346579 38.278491 
L 250.507674 38.197515 
L 250.522333 37.549709 
L 250.78202 37.468733 
L 250.787353 36.982878 
L 250.946464 36.94239 
L 250.946464 36.901903 
L 250.960229 36.335072 
L 251.121914 36.254096 
L 251.222827 35.889705 
L 251.774233 35.808729 
L 251.779863 35.079947 
L 252.138304 34.998971 
L 252.21716 33.946286 
L 252.386147 33.86531 
L 252.417598 32.853113 
L 252.58915 32.772137 
L 252.693156 32.083843 
L 252.865631 32.002867 
L 252.962625 30.626278 
L 253.229724 30.58579 
L 253.229724 30.545303 
L 253.240413 29.81652 
L 253.401653 29.776032 
L 253.401653 29.735545 
L 253.413844 28.763835 
L 253.678613 28.723347 
L 253.678613 28.682859 
L 253.784282 26.982367 
L 253.853377 26.901392 
L 253.951638 26.617976 
L 254.221432 26.537001 
L 254.22832 25.403339 
L 254.400402 25.322364 
L 254.401156 25.241388 
L 254.667164 25.160412 
L 254.673333 24.553094 
L 262.051434 24.472118 
L 262.054926 24.391142 
L 262.405845 24.310166 
L 262.490199 24.107727 
L 262.654204 24.026751 
L 262.676009 23.864799 
L 262.844386 23.783824 
L 262.928108 23.621872 
L 263.661163 23.540896 
L 263.661163 23.500408 
L 263.850232 23.419432 
L 263.933207 23.257481 
L 264.120317 23.176505 
L 264.121687 23.055041 
L 264.471376 22.974066 
L 264.578292 22.69065 
L 264.663618 22.609674 
L 264.664698 22.528699 
L 265.122751 22.447723 
L 265.128597 22.285771 
L 265.666676 22.204795 
L 265.670053 22.12382 
L 266.17106 22.042844 
L 266.172677 21.961868 
L 267.265155 21.880892 
L 267.265155 21.840404 
L 267.427065 21.759429 
L 267.427065 21.718941 
L 267.698521 21.637965 
L 267.791932 21.395038 
L 268.044017 21.314062 
L 268.140576 21.111622 
L 268.515535 21.030646 
L 268.605465 20.949671 
L 268.885049 20.868695 
L 268.946597 20.787719 
L 269.058598 20.706743 
L 269.134257 20.463816 
L 269.325163 20.38284 
L 269.331681 20.099425 
L 269.607163 20.018449 
L 269.698412 19.937473 
L 269.867352 19.856497 
L 269.873225 19.654058 
L 270.153349 19.573082 
L 270.153349 19.532594 
L 270.589543 19.451618 
L 270.692591 19.208691 
L 271.133869 19.127715 
L 271.13728 18.965764 
L 271.754184 18.884788 
L 271.754184 18.8443 
L 278.580905 18.763324 
L 278.602172 18.682348 
L 280.581899 18.601373 
L 280.581899 18.560885 
L 283.522607 18.479909 
L 283.522607 18.439421 
L 284.969091 18.358445 
L 285.057066 18.236981 
L 285.797765 18.156006 
L 285.797765 18.115518 
L 286.772515 18.034542 
L 286.772515 17.994054 
L 287.156991 17.913078 
L 287.225487 17.832102 
L 297.396607 17.751127 
L 297.396607 17.710639 
L 298.276354 17.710639 
L 298.276354 17.629663 
L 298.276354 17.467711 
L 302.699963 17.386736 
L 302.699963 17.346248 
L 312.303928 17.265272 
L 312.303928 17.184296 
L 313.73939 17.10332 
L 313.740045 17.022345 
L 321.843993 16.941369 
L 321.843993 16.860393 
L 335.765393 16.779417 
L 335.765393 16.738929 
L 346.655168 16.698441 
L 346.655168 16.657953 
" clip-path="url(#p6badd50842)" style="fill: none; stroke: #7a6aa8; stroke-width: 1.5; stroke-linecap: square"/>
   </g>
   <g id="line2d_45">
    <path d="M 220.84609 97.63375 
L 220.84609 80.507369 
L 221.019528 80.507369 
L 221.019528 80.426393 
L 221.019528 78.118583 
L 221.192965 78.118583 
L 221.192965 78.037607 
L 221.192965 77.835168 
L 232.544299 77.835168 
L 232.544299 77.754192 
L 232.548446 74.7176 
L 232.719976 74.677112 
L 232.719976 74.636624 
L 232.735269 71.154665 
L 232.90871 71.073689 
L 232.90871 70.911737 
L 234.858064 70.911737 
L 234.858064 70.830761 
L 234.862258 68.522951 
L 235.034428 68.441975 
L 235.03573 68.118072 
L 235.293814 68.118072 
L 235.293814 68.037096 
L 235.297696 65.931726 
L 235.467299 65.931726 
L 235.467299 65.85075 
L 235.471181 65.486359 
L 236.491537 65.486359 
L 236.491537 65.405383 
L 236.494428 60.789763 
L 236.665055 60.708787 
L 236.768973 56.619509 
L 236.938543 56.579021 
L 236.938543 56.538533 
L 236.942424 56.012191 
L 237.311343 55.931215 
L 237.316185 51.882425 
L 237.48476 51.882425 
L 237.48476 51.801449 
L 237.489602 51.234619 
L 237.757387 51.234619 
L 237.757387 51.153643 
L 237.760893 45.647289 
L 237.931668 45.606801 
L 237.931668 45.566313 
L 237.934331 45.24241 
L 238.107152 45.161434 
L 238.107152 45.120946 
L 246.562781 45.03997 
L 246.566975 44.554115 
L 246.751082 44.47314 
L 246.753311 44.027773 
L 246.999394 43.946797 
L 247.002621 43.582406 
L 247.176766 43.50143 
L 247.189719 43.015575 
L 248.007125 42.934599 
L 248.011928 42.610696 
L 248.1952 42.52972 
L 248.199871 42.165329 
L 248.382367 42.124841 
L 248.382367 42.084354 
L 248.472284 41.072156 
L 248.651825 40.99118 
L 248.658598 40.262398 
L 249.008134 40.22191 
L 249.008134 40.181422 
L 249.016466 39.493128 
L 249.19763 39.412152 
L 249.203921 38.440443 
L 250.345968 38.359467 
L 250.346579 38.278491 
L 250.507674 38.197515 
L 250.522333 37.549709 
L 250.78202 37.468733 
L 250.787353 36.982878 
L 250.946464 36.94239 
L 250.946464 36.901903 
L 250.960229 36.335072 
L 251.121914 36.254096 
L 251.222827 35.889705 
L 251.774233 35.808729 
L 251.779863 35.079947 
L 252.138304 34.998971 
L 252.21716 33.946286 
L 252.386147 33.86531 
L 252.417598 32.853113 
L 252.58915 32.772137 
L 252.693156 32.083843 
L 252.865631 32.002867 
L 252.962625 30.626278 
L 253.229724 30.58579 
L 253.229724 30.545303 
L 253.240413 29.81652 
L 253.401653 29.776032 
L 253.401653 29.735545 
L 253.413844 28.763835 
L 253.678613 28.723347 
L 253.678613 28.682859 
L 253.784282 26.982367 
L 253.853377 26.901392 
L 253.951638 26.617976 
L 254.221432 26.537001 
L 254.22832 25.403339 
L 254.400402 25.322364 
L 254.401156 25.241388 
L 254.667164 25.160412 
L 254.673333 24.553094 
L 262.051434 24.472118 
L 262.054926 24.391142 
L 262.405845 24.310166 
L 262.490199 24.107727 
L 262.654204 24.026751 
L 262.676009 23.864799 
L 262.844386 23.783824 
L 262.928108 23.621872 
L 263.661163 23.540896 
L 263.661163 23.500408 
L 263.850232 23.419432 
L 263.933207 23.257481 
L 264.120317 23.176505 
L 264.121687 23.055041 
L 264.471376 22.974066 
L 264.578292 22.69065 
L 264.663618 22.609674 
L 264.664698 22.528699 
L 265.122751 22.447723 
L 265.128597 22.285771 
L 265.666676 22.204795 
L 265.670053 22.12382 
L 266.17106 22.042844 
L 266.172677 21.961868 
L 267.265155 21.880892 
L 267.265155 21.840404 
L 267.427065 21.759429 
L 267.427065 21.718941 
L 267.698521 21.637965 
L 267.791932 21.395038 
L 268.044017 21.314062 
L 268.140576 21.111622 
L 268.515535 21.030646 
L 268.605465 20.949671 
L 268.885049 20.868695 
L 268.946597 20.787719 
L 269.058598 20.706743 
L 269.134257 20.463816 
L 269.325163 20.38284 
L 269.331681 20.099425 
L 269.607163 20.018449 
L 269.698412 19.937473 
L 269.867352 19.856497 
L 269.873225 19.654058 
L 270.153349 19.573082 
L 270.153349 19.532594 
L 270.589543 19.451618 
L 270.692591 19.208691 
L 271.133869 19.127715 
L 271.13728 18.965764 
L 271.754184 18.884788 
L 271.754184 18.8443 
L 278.580905 18.763324 
L 278.602172 18.682348 
L 280.581899 18.601373 
L 280.581899 18.560885 
L 283.522607 18.479909 
L 283.522607 18.439421 
L 284.969091 18.358445 
L 285.057066 18.236981 
L 285.797765 18.156006 
L 285.797765 18.115518 
L 286.772515 18.034542 
L 286.772515 17.994054 
L 287.156991 17.913078 
L 287.225487 17.832102 
L 297.396607 17.751127 
L 297.396607 17.710639 
L 298.276354 17.710639 
L 298.276354 17.629663 
L 298.276354 17.467711 
L 302.699963 17.386736 
L 302.699963 17.346248 
L 312.303928 17.265272 
L 312.303928 17.184296 
L 313.73939 17.10332 
L 313.740045 17.022345 
L 321.843993 16.941369 
L 321.843993 16.860393 
L 335.765393 16.779417 
L 335.765393 16.738929 
L 346.655168 16.698441 
L 346.655168 16.657953 
" clip-path="url(#p6badd50842)" style="fill: none; stroke-dasharray: 4.5,3; stroke-dashoffset: 0; stroke: #d08a1e; stroke-width: 1.5"/>
   </g>
   <g id="patch_6">
    <path d="M 214.555636 97.63375 
L 214.555636 15.038437 
" style="fill: none; stroke: #000000; stroke-width: 0.8; stroke-linejoin: miter; stroke-linecap: square"/>
   </g>
   <g id="patch_7">
    <path d="M 214.555636 97.63375 
L 352.945622 97.63375 
" style="fill: none; stroke: #000000; stroke-width: 0.8; stroke-linejoin: miter; stroke-linecap: square"/>
   </g>
   <g id="text_16">
    <text style="font-size: 10px; font-family: 'DejaVu Sans'; text-anchor: start" x="214.555636" y="9.038437" transform="rotate(-0 214.555636 9.038437)">Futures (both payouts home)</text>
   </g>
   <g id="legend_2">
    <g id="line2d_46">
     <path d="M 296.886247 67.730625 
L 306.886247 67.730625 
L 306.886247 67.730625 
L 316.886247 67.730625 
L 316.886247 67.730625 
" style="fill: none; stroke: #7a6aa8; stroke-width: 1.5; stroke-linecap: square"/>
    </g>
    <g id="text_17">
     <text style="font-size: 10px; font-family: 'DejaVu Sans'; text-anchor: start" x="324.886247" y="71.230625" transform="rotate(-0 324.886247 71.230625)">S1d</text>
    </g>
    <g id="line2d_47">
     <path d="M 296.886247 82.731406 
L 306.886247 82.731406 
L 306.886247 82.731406 
L 316.886247 82.731406 
L 316.886247 82.731406 
" style="fill: none; stroke-dasharray: 4.5,3; stroke-dashoffset: 0; stroke: #d08a1e; stroke-width: 1.5"/>
    </g>
    <g id="text_18">
     <text style="font-size: 10px; font-family: 'DejaVu Sans'; text-anchor: start" x="324.886247" y="86.231406" transform="rotate(-0 324.886247 86.231406)">S1e</text>
    </g>
   </g>
  </g>
 </g>
 <defs>
  <clipPath id="p34aa2f7600">
   <rect x="38.343906" y="15.038437" width="166.067983" height="82.595312"/>
  </clipPath>
  <clipPath id="p6badd50842">
   <rect x="214.555636" y="15.038437" width="138.389986" height="82.595312"/>
  </clipPath>
 </defs>
</svg>
